<svg class="animated" id="freepik_stories-city-bus" xmlns="http://www.w3.org/2000/svg" viewBox="0 0 750 500" version="1.1" xmlns:xlink="http://www.w3.org/1999/xlink" xmlns:svgjs="http://svgjs.com/svgjs"><style>svg#freepik_stories-city-bus:not(.animated) .animable {opacity: 0;}svg#freepik_stories-city-bus.animated #freepik--Shadow--inject-75 {animation: 1s 1 forwards cubic-bezier(.36,-0.01,.5,1.38) slideUp;animation-delay: 0s;}svg#freepik_stories-city-bus.animated #elmkp9s09g94f {animation: 1.6s 1 forwards ease-out lightSpeedLeft;animation-delay: 0s;}svg#freepik_stories-city-bus.animated #freepik--Bus--inject-75 {animation: 1.6s 1 forwards ease-out lightSpeedLeft,1.5s Infinite  linear shake;animation-delay: 0s,1.6s;}            @keyframes slideUp {                0% {                    opacity: 0;                    transform: translateY(30px);                }                100% {                    opacity: 1;                    transform: inherit;                }            }                    @keyframes lightSpeedLeft {              from {                transform: translate3d(-50%, 0, 0) skewX(20deg);                opacity: 0;              }              60% {                transform: skewX(-10deg);                opacity: 1;              }              80% {                transform: skewX(2deg);              }              to {                opacity: 1;                transform: translate3d(0, 0, 0);              }            }                    @keyframes shake {                10%, 90% {                    transform: translate3d(-1px, 0, 0);                  }                  20%, 80% {                    transform: translate3d(2px, 0, 0);                  }                  30%, 50%, 70% {                    transform: translate3d(-4px, 0, 0);                  }                  40%, 60% {                    transform: translate3d(4px, 0, 0);                  }            }        </style><g id="freepik--Shadow--inject-75" class="animable" style="transform-origin: 373.443px 444.168px;"><path d="M703.71139,444.1678c0,3.3867-147.8662,6.1322-330.26849,6.1322s-330.26849-2.7455-330.26849-6.1322,147.8662-6.1323,330.26849-6.1323,330.26849,2.7455,330.26849,6.1323Z" style="fill: rgb(245, 245, 245); transform-origin: 373.443px 444.168px;" id="ellhyt1loczpn" class="animable"></path></g><g id="freepik--Bus--inject-75" class="animable animator-active" style="transform-origin: 386.51px 319.39px;"><g id="elmkp9s09g94f" class="animable" style="transform-origin: 386.51px 319.39px;"><g id="elf9oyd9mg6fn" class="animable" style="transform-origin: 420.255px 387.904px;"><g id="elht8guncrlw"><rect x="380.42439" y="356.2049" width="79.66061" height="63.3973" style="fill: rgb(251, 255, 0); transform-origin: 420.255px 387.904px; transform: rotate(180deg);" class="animable"></rect></g><g id="elbqz5j0d8qsq"><rect x="380.42439" y="356.2049" width="79.66061" height="63.3973" style="opacity: 0.5; transform-origin: 420.255px 387.904px; transform: rotate(180deg);" class="animable"></rect></g></g><g id="elwrdovz5ux5o" class="animable" style="transform-origin: 438.014px 408.405px;"><ellipse cx="428.15" cy="408.549" rx="22.766" ry="35.6187" style="fill: rgb(38, 50, 56); transform-origin: 428.15px 408.549px;" id="eltaw9nlpfz8" class="animable"></ellipse><path d="M425.113,408.549c0,12.2948-3.01881,29.2178,3.037,35.6187h19.729c12.57329,0,22.766-15.947,22.766-35.6187s-10.19271-35.6187-22.766-35.6187c-5.40811,0-19.09021-.6459-19.729,0-5.85841,5.9232-3.037,24.4084-3.037,35.6187Z" style="fill: rgb(38, 50, 56); transform-origin: 447.503px 408.405px;" id="el48luwev3yhe" class="animable"></path><g id="elv5fxuz2qq4m"><ellipse cx="426.56672" cy="407.45872" rx="11.60857" ry="18.16218" style="fill: rgb(255, 255, 255); opacity: 0.3; transform-origin: 426.567px 407.459px;" class="animable"></ellipse></g></g><g id="elwzlvsiv7zs" class="animable" style="transform-origin: 158.749px 387.904px;"><g id="ela21rpebjqz"><rect x="118.9188" y="356.2049" width="79.6606" height="63.3973" style="fill: rgb(251, 255, 0); transform-origin: 158.749px 387.904px; transform: rotate(180deg);" class="animable"></rect></g><g id="elptlg1c6wp9"><rect x="118.9188" y="356.2049" width="79.6606" height="63.3973" style="opacity: 0.5; transform-origin: 158.749px 387.904px; transform: rotate(180deg);" class="animable"></rect></g></g><g id="eltl0fl2a035" class="animable" style="transform-origin: 176.509px 408.405px;"><ellipse cx="166.64438" cy="408.549" rx="22.76602" ry="35.6187" style="fill: rgb(38, 50, 56); transform-origin: 166.644px 408.549px;" id="el1fe90iduqe1" class="animable"></ellipse><path d="M163.6073,408.549c0,12.2948-3.0187,29.2178,3.0371,35.6187h19.729c12.5733,0,22.766-15.947,22.766-35.6187s-10.1927-35.6187-22.766-35.6187c-5.4082,0-19.0902-.6459-19.729,0-5.8584,5.9232-3.0371,24.4084-3.0371,35.6187Z" style="fill: rgb(38, 50, 56); transform-origin: 185.997px 408.405px;" id="elw34g4gqwk87" class="animable"></path><g id="elt937s1o2dp"><ellipse cx="165.0611" cy="407.45872" rx="11.6085" ry="18.16218" style="fill: rgb(255, 255, 255); opacity: 0.3; transform-origin: 165.061px 407.459px;" class="animable"></ellipse></g></g><g id="eldo6wbepcov7" class="animable" style="transform-origin: 280.636px 408.405px;"><ellipse cx="270.77177" cy="408.549" rx="22.76602" ry="35.6187" style="fill: rgb(38, 50, 56); transform-origin: 270.772px 408.549px;" id="elphuy2c632ia" class="animable"></ellipse><path d="M267.7347,408.549c0,12.2948-3.0187,29.2178,3.0371,35.6187h19.729c12.5733,0,22.766-15.947,22.766-35.6187s-10.1927-35.6187-22.766-35.6187c-5.4082,0-19.0902-.6459-19.729,0-5.8584,5.9232-3.0371,24.4084-3.0371,35.6187Z" style="fill: rgb(38, 50, 56); transform-origin: 290.125px 408.405px;" id="eln0qc2nw312i" class="animable"></path><g id="eli52mxn241bf"><ellipse cx="269.1885" cy="407.45872" rx="11.6085" ry="18.16218" style="fill: rgb(255, 255, 255); opacity: 0.3; transform-origin: 269.188px 407.459px;" class="animable"></ellipse></g></g><g id="elkmkad3ihcu8"><path d="M290.5008,372.9303c-5.4082,0-19.0902-.6459-19.729,0-12.5734,0-22.7661,15.947-22.7661,35.6187s10.1927,35.6187,22.7661,35.6187h19.729c12.5733,0,22.766-15.947,22.766-35.6187s-10.1927-35.6187-22.766-35.6187Z" style="opacity: 0.3; transform-origin: 280.636px 408.405px;" class="animable"></path></g><g id="elrhijyrubo3" class="animable" style="transform-origin: 577.851px 408.405px;"><ellipse cx="567.98659" cy="408.549" rx="22.766" ry="35.6187" style="fill: rgb(38, 50, 56); transform-origin: 567.987px 408.549px;" id="elexyz0j3df7" class="animable"></ellipse><path d="M564.94959,408.549c0,12.2948-3.0188,29.2178,3.037,35.6187h19.729c12.5733,0,22.766-15.947,22.766-35.6187s-10.1927-35.6187-22.766-35.6187c-5.4081,0-19.0902-.6459-19.729,0-5.8584,5.9232-3.037,24.4084-3.037,35.6187Z" style="fill: rgb(38, 50, 56); transform-origin: 587.339px 408.405px;" id="elrhhlg34ln2" class="animable"></path><g id="eluhehld0dlmf"><ellipse cx="566.40331" cy="407.45872" rx="11.60857" ry="18.16218" style="fill: rgb(255, 255, 255); opacity: 0.3; transform-origin: 566.403px 407.459px;" class="animable"></ellipse></g></g><g id="el3a6jykdraio"><path d="M587.87639,372.9303c-5.4082,0-19.0902-.6459-19.729,0-12.57339,0-22.7661,15.9471-22.7661,35.6187s10.19271,35.6187,22.7661,35.6187h19.729c12.5733,0,22.766-15.947,22.766-35.6187s-10.1927-35.6187-22.766-35.6187Z" style="opacity: 0.3; transform-origin: 578.012px 408.405px;" class="animable"></path></g><path d="M64.3708,214.23l613.94159,.5284c11.1525,.0096,18.3645,1.3018,20.5613,12.2847,7.5428,37.7117,26.2445,126.6463,20.934,163.9859l-1.4854,7.2721c-1.1451,12.0775-11.2437,21.3011-23.3219,21.3011h-242.08099c1.4547-4.8312,2.2674-10.165,2.2674-15.7776,0-21.7343-12.1049-39.3535-27.03679-39.3535s-27.03681,17.6192-27.03681,39.3535c0,5.6126,.8127,10.9464,2.2674,15.7776H188.6241c1.4546-4.8312,2.2673-10.165,2.2673-15.7776,0-21.7343-12.1048-39.3535-27.0368-39.3535s-27.0368,17.6192-27.0368,39.3535c0,5.6126,.8127,10.9464,2.2674,15.7776H64.3507c-12.9387,0-23.4275-10.5358-23.4275-23.5322V228.2088c0-13.0044,10.501-13.99,23.4476-13.9788Z" style="fill: rgb(251, 255, 0); transform-origin: 380.833px 316.916px;" id="elfppvga2cye4" class="animable"></path><g id="elbcfy2b45cbr"><path d="M40.9232,376.7471h11.3053v30.4242h-8.5383s-2.767-4.597-2.767-10.2677v-20.1565Z" style="fill: rgb(255, 255, 255); opacity: 0.5; transform-origin: 46.5758px 391.959px;" class="animable"></path></g><path d="M586.63669,214.6795l-11.51869-17.351c-1.12451-1.6938-3.02241-2.7119-5.05551-2.7119H205.1888c-2.4195,0-4.6405,1.3384-5.7709,3.4776l-8.5265,16.1358,395.74529,.4495Z" style="fill: rgb(251, 255, 0); transform-origin: 388.764px 204.648px;" id="eluh62xze39l" class="animable"></path><g id="elgg0h5rjp4bn"><rect x="366.52859" y="395.1861" width="14.7875" height="6.0957" rx="3.0478" ry="3.0478" style="fill: rgb(255, 255, 255); transform-origin: 373.922px 398.234px; transform: rotate(180deg);" class="animable"></rect></g><path d="M215.7386,401.2295h8.692c1.6832,0,3.0478-1.3646,3.0478-3.0478h0c0-1.6833-1.3646-3.0479-3.0478-3.0479h-8.692c-1.6832,0-3.0478,1.3646-3.0478,3.0479h0c0,1.6832,1.3646,3.0478,3.0478,3.0478Z" style="fill: rgb(255, 255, 255); transform-origin: 220.085px 398.182px;" id="el40lmi6me1jw" class="animable"></path><g id="el7ekn4ozyfk3"><rect x="63.5918" y="395.1861" width="14.7875" height="6.0957" rx="3.0478" ry="3.0478" style="fill: rgb(255, 255, 255); transform-origin: 70.9856px 398.234px; transform: rotate(180deg);" class="animable"></rect></g><rect x="189.41016" y="406.6709" width="211.80859" height="1" style="fill: rgb(38, 50, 56); transform-origin: 295.314px 407.171px;" id="el5ci89bkx11" class="animable"></rect><rect x="43.69043" y="406.6709" width="93.81787" height="1" style="fill: rgb(38, 50, 56); transform-origin: 90.5994px 407.171px;" id="el6ym4r8dnxoc" class="animable"></rect><rect x="120.12207" y="344.4541" width="1" height="63.00488" style="fill: rgb(38, 50, 56); transform-origin: 120.622px 375.957px;" id="el587jjtu1d5" class="animable"></rect><rect x="58.50342" y="316.29395" width="1" height="90.87695" style="fill: rgb(38, 50, 56); transform-origin: 59.0034px 361.732px;" id="elu20d5lxkqp" class="animable"></rect><rect x="202.12402" y="345.97266" width="1" height="60.26953" style="fill: rgb(38, 50, 56); transform-origin: 202.624px 376.107px;" id="elwkvs1y7o1h" class="animable"></rect><rect x="388.48926" y="347.25488" width="1" height="59.91602" style="fill: rgb(38, 50, 56); transform-origin: 388.989px 377.213px;" id="el4y5q17bsluw" class="animable"></rect><g id="el252k0kp3esq"><rect x="209.1394" y="353.3295" width="173.56579" height="35.9671" style="opacity: 0.2; transform-origin: 295.922px 371.313px; transform: rotate(180deg);" class="animable"></rect></g><g id="el0i0orxxsqzy5"><path d="M466.76379,194.6166h103.4824c2.0331,0,3.9961,1.3928,5.1205,3.0866l11.27,16.9763-131.9561-.4284,12.0832-19.6345Z" style="fill: rgb(255, 255, 255); opacity: 0.3; transform-origin: 520.659px 204.648px;" class="animable"></path></g><g id="elnxfei4u5nb" class="animable" style="transform-origin: 495.843px 315.776px;"><g id="el83anwpju6h5"><rect x="465.229" y="224.0934" width="61.22809" height="183.3653" style="fill: rgb(38, 50, 56); transform-origin: 495.843px 315.776px; transform: rotate(180deg);" class="animable"></rect></g><g id="eluxsxqo5wbu"><rect x="469.04869" y="236.9211" width="53.5295" height="136.5854" style="fill: rgb(255, 255, 255); opacity: 0.3; transform-origin: 495.813px 305.214px; transform: rotate(180deg);" class="animable"></rect></g><g id="elpi7iu2jdktj"><path d="M469.04869,241.4473l53.5295,23.8781v39.8884c-1.2466,1.2465-53.5295-26.7455-53.5295-26.7455v-37.021Z" style="fill: rgb(255, 255, 255); opacity: 0.3; transform-origin: 495.813px 273.351px;" class="animable"></path></g><g id="ellywgob5njn"><polygon points="469.04869 287.4284 522.58309 313.1372 522.60779 322.2954 469.07839 295.55 469.04869 287.4284" style="fill: rgb(255, 255, 255); opacity: 0.3; transform-origin: 495.828px 304.862px;" class="animable"></polygon></g><path d="M504.43219,401.2295h8.692c1.6832,0,3.04781-1.3646,3.04781-3.0478h0c0-1.6833-1.36461-3.0479-3.04781-3.0479h-8.692c-1.68319,0-3.0478,1.3646-3.0478,3.0479h0c0,1.6832,1.36461,3.0478,3.0478,3.0478Z" style="fill: rgb(255, 255, 255); transform-origin: 508.778px 398.182px;" id="elkwuq7rl5rc" class="animable"></path><g id="elcda2coq59v5"><rect x="493.53429" y="235.4067" width="4.0651" height="139.6141" style="fill: rgb(38, 50, 56); transform-origin: 495.567px 305.214px; transform: rotate(180deg);" class="animable"></rect></g></g><g id="el3mznn5oobri"><path d="M466.76379,194.6166l-12.0832,19.6345H190.8914l8.2716-15.8682c1.2068-2.3151,3.5998-3.768,6.2105-3.7708" style="opacity: 0.2; transform-origin: 328.828px 204.432px;" class="animable"></path></g><g id="el3vag9rxoxxy"><polygon points="586.63669 214.6795 191.0805 214.6354 193.2295 210.3632 583.74829 210.3632 586.63669 214.6795" style="opacity: 0.2; transform-origin: 388.859px 212.521px;" class="animable"></polygon></g><g id="elma17odzmuk" class="animable" style="transform-origin: 432.998px 204.743px;"><g id="el2okih5xi2x5"><rect x="435.83283" y="204.49317" width="8.90173" height=".49951" style="fill: rgb(38, 50, 56); transform-origin: 440.284px 204.743px; transform: rotate(-57.2109deg);" class="animable"></rect></g><g id="elxvtjjlqjmg"><rect x="432.1895" y="204.49317" width="8.90226" height=".49951" style="fill: rgb(38, 50, 56); transform-origin: 436.641px 204.743px; transform: rotate(-57.2109deg);" class="animable"></rect></g><g id="elwsmoywd1go9"><rect x="428.54692" y="204.49317" width="8.90226" height=".49951" style="fill: rgb(38, 50, 56); transform-origin: 432.998px 204.743px; transform: rotate(-57.2109deg);" class="animable"></rect></g><g id="elxd9apcuqlff"><rect x="424.90434" y="204.49317" width="8.90226" height=".49951" style="fill: rgb(38, 50, 56); transform-origin: 429.355px 204.743px; transform: rotate(-57.2109deg);" class="animable"></rect></g><g id="elmzsiqlaspgj"><rect x="421.26176" y="204.49317" width="8.90226" height=".49951" style="fill: rgb(38, 50, 56); transform-origin: 425.713px 204.743px; transform: rotate(-57.2109deg);" class="animable"></rect></g></g><g id="el2q45ah2cpgu" class="animable" style="transform-origin: 342.58px 204.648px;"><g id="el26q584ufq3h"><rect x="345.41448" y="204.39803" width="8.90199" height=".50033" style="fill: rgb(38, 50, 56); transform-origin: 349.865px 204.648px; transform: rotate(-57.2715deg);" class="animable"></rect></g><g id="elb2l8p0cio6w"><rect x="341.7719" y="204.39803" width="8.90199" height=".50033" style="fill: rgb(38, 50, 56); transform-origin: 346.223px 204.648px; transform: rotate(-57.2715deg);" class="animable"></rect></g><g id="elijqm0770i0c"><rect x="338.12933" y="204.39803" width="8.90199" height=".50033" style="fill: rgb(38, 50, 56); transform-origin: 342.58px 204.648px; transform: rotate(-57.2715deg);" class="animable"></rect></g><g id="eln566r4qf28"><rect x="334.48675" y="204.39803" width="8.90199" height=".50033" style="fill: rgb(38, 50, 56); transform-origin: 338.938px 204.648px; transform: rotate(-57.2715deg);" class="animable"></rect></g><g id="el4rf0dbtk32j"><rect x="330.84417" y="204.39803" width="8.90199" height=".50033" style="fill: rgb(38, 50, 56); transform-origin: 335.295px 204.648px; transform: rotate(-57.2715deg);" class="animable"></rect></g></g><g id="elf2buiva25t" class="animable" style="transform-origin: 252.162px 204.743px;"><g id="el2il532c1v16"><rect x="254.99689" y="204.49275" width="8.90173" height=".50033" style="fill: rgb(38, 50, 56); transform-origin: 259.448px 204.743px; transform: rotate(-57.2715deg);" class="animable"></rect></g><g id="elups22opyf3c"><rect x="251.35393" y="204.49275" width="8.90199" height=".50033" style="fill: rgb(38, 50, 56); transform-origin: 255.805px 204.743px; transform: rotate(-57.2715deg);" class="animable"></rect></g><g id="elr4kw3qy95e"><rect x="247.71136" y="204.49275" width="8.90199" height=".50033" style="fill: rgb(38, 50, 56); transform-origin: 252.162px 204.743px; transform: rotate(-57.2715deg);" class="animable"></rect></g><g id="el0qx7z8g1zht"><rect x="244.06878" y="204.49275" width="8.90199" height=".50033" style="fill: rgb(38, 50, 56); transform-origin: 248.52px 204.743px; transform: rotate(-57.2715deg);" class="animable"></rect></g><g id="el7nuiszeaymj"><rect x="240.4262" y="204.49275" width="8.90199" height=".50033" style="fill: rgb(38, 50, 56); transform-origin: 244.877px 204.743px; transform: rotate(-57.2715deg);" class="animable"></rect></g></g><g id="elcfsnftyzmjv" class="animable" style="transform-origin: 251.62px 285.399px;"><polygon points="454.86729 346.7041 120.53687 346.7041 99.1134 316.9161 48.373 316.129 48.373 224.0934 454.86729 224.0934 454.86729 346.7041" style="fill: rgb(38, 50, 56); transform-origin: 251.62px 285.399px;" id="ela0qyqz6l0dr" class="animable"></polygon><g id="el3363wp58zc7"><rect x="392.31649" y="235.5641" width="55.8764" height="97.0137" style="fill: rgb(255, 255, 255); opacity: 0.3; transform-origin: 420.255px 284.071px; transform: rotate(180deg);" class="animable"></rect></g><g id="elq4d3xvglfg"><path d="M392.40479,238.0899l55.6999,23.8781v39.8883c-1.2971,1.2466-55.6999-26.7454-55.6999-26.7454v-37.021Z" style="fill: rgb(255, 255, 255); opacity: 0.3; transform-origin: 420.255px 269.993px;" class="animable"></path></g><g id="elm2a8nzik3pf"><polygon points="392.38929 284.071 448.09439 309.7798 448.12009 318.938 392.42019 292.1926 392.38929 284.071" style="fill: rgb(255, 255, 255); opacity: 0.3; transform-origin: 420.255px 301.505px;" class="animable"></polygon></g><g id="ell3ilqwd0lv"><polygon points="126.61586 332.4204 198.5794 332.4204 198.5794 235.4067 108.5763 235.4067 108.0004 308.4275 126.61586 332.4204" style="fill: rgb(255, 255, 255); opacity: 0.3; transform-origin: 153.29px 283.914px;" class="animable"></polygon></g><g id="el0z1lu2cfxyl"><rect x="211.3837" y="235.4067" width="169.44939" height="97.0137" style="fill: rgb(255, 255, 255); opacity: 0.3; transform-origin: 296.108px 283.914px; transform: rotate(180deg);" class="animable"></rect></g><g id="elf62azrnyb4g"><rect x="54.3845" y="235.4067" width="42.0509" height="69.7281" style="fill: rgb(255, 255, 255); opacity: 0.3; transform-origin: 75.41px 270.271px; transform: rotate(180deg);" class="animable"></rect></g><g id="elz9e889eay98"><polygon points="380.83309 281.0162 268.8213 235.4067 211.3837 235.4067 211.3837 253.7153 380.83309 322.2954 380.83309 281.0162" style="fill: rgb(255, 255, 255); opacity: 0.3; transform-origin: 296.108px 278.851px;" class="animable"></polygon></g><g id="elc6bzh9yu4m"><polyline points="198.5794 293.1926 108.3911 258.8869 108.5089 243.9493 198.5794 278.4683 198.5794 289.4038" style="fill: rgb(255, 255, 255); opacity: 0.3; transform-origin: 153.485px 268.571px;" class="animable"></polyline></g><g id="el2zgimbrbxw"><polygon points="108.5089 264.9091 198.5794 299.4282 198.5794 305.1348 108.391 270.2708 108.5089 264.9091" style="fill: rgb(255, 255, 255); opacity: 0.3; transform-origin: 153.485px 285.022px;" class="animable"></polygon></g><g id="elg6208ur3t2o"><rect x="51.584" y="249.5643" width="398.68759" height="3.7163" style="fill: rgb(38, 50, 56); transform-origin: 250.928px 251.422px; transform: rotate(180deg);" class="animable"></rect></g></g><g id="elpu0sswd8rfo" class="animable" style="transform-origin: 625.896px 317.119px;"><g id="el1b0fvmkws66"><path d="M698.87369,227.0431c7.5428,37.7117,26.2445,126.6463,20.934,163.9859l-1.4854,7.2721c-1.1451,12.0775-11.2437,21.3011-23.3219,21.3011h-153.2085l-10.7433-204.9668,147.2638,.123c11.1525,.0096,18.3645,1.3018,20.5613,12.2847Z" style="fill: rgb(255, 255, 255); opacity: 0.3; transform-origin: 625.896px 317.119px;" class="animable"></path></g><g id="elpyehg3xd8nj"><path d="M715.64829,375.3007s-2.0531,13.5816-12.3182,15.0029c-10.26509,1.4213-36.4807,.3158-36.4807,.3158l1.9738-5.0439c2.2461-5.7401,7.7324-9.5588,13.8953-9.6717l32.9298-.6031Z" style="fill: rgb(255, 255, 255); opacity: 0.4; transform-origin: 691.249px 383.165px;" class="animable"></path></g><g id="elghjvrkt9elv"><path d="M562.77439,375.3007s2.053,13.5816,12.3182,15.0029c10.2651,1.4213,36.4806,.3158,36.4806,.3158l-2.2161-5.6634c-2.0994-5.3652-7.2274-8.9345-12.9878-9.04l-33.5949-.6153Z" style="fill: rgb(255, 255, 255); opacity: 0.4; transform-origin: 587.174px 383.165px;" class="animable"></path></g><g id="elg8e8djpcgs8"><rect x="619.60419" y="406.4762" width="45.0846" height="13.126" style="fill: rgb(38, 50, 56); transform-origin: 642.146px 413.039px; transform: rotate(180deg);" class="animable"></rect></g><path d="M698.46529,411.9277c0,1.9448,1.1744,3.5214,2.6231,3.5214,1.44861,0,2.623-1.5766,2.623-3.5214s-1.17439-3.5214-2.623-3.5214c-1.4487,0-2.6231,1.5766-2.6231,3.5214Z" style="fill: rgb(255, 255, 255); transform-origin: 701.088px 411.928px;" id="elrnqo96jrrg" class="animable"></path><path d="M690.63669,411.9277c0,1.2969,.7832,2.3483,1.74931,2.3483,.966,0,1.74919-1.0514,1.74919-2.3483s-.78319-2.3483-1.74919-2.3483c-.96611,0-1.74931,1.0514-1.74931,2.3483Z" style="fill: rgb(255, 255, 255); transform-origin: 692.386px 411.928px;" id="elqn2yixq2omm" class="animable"></path><path d="M675.37891,419.60254h-1c0-8.14648,6.62695-14.77344,14.77246-14.77344h27.38477v1h-27.38477c-7.59375,0-13.77246,6.17871-13.77246,13.77344Z" style="fill: rgb(38, 50, 56); transform-origin: 695.458px 412.216px;" id="eltqx94rw5cwj" class="animable"></path><path d="M577.88309,411.9277c0,1.9448-1.1744,3.5214-2.62309,3.5214s-2.623-1.5766-2.623-3.5214,1.17429-3.5214,2.623-3.5214,2.62309,1.5766,2.62309,3.5214Z" style="fill: rgb(255, 255, 255); transform-origin: 575.26px 411.928px;" id="el1oxkjl569e5" class="animable"></path><ellipse cx="583.96239" cy="411.9277" rx="1.7492" ry="2.3483" style="fill: rgb(255, 255, 255); transform-origin: 583.962px 411.928px;" id="ela4g98xvheu" class="animable"></ellipse><path d="M601.96973,419.60254h-1c0-7.59473-6.17871-13.77344-13.77344-13.77344h-46.21484v-1h46.21484c8.14648,0,14.77344,6.62695,14.77344,14.77344Z" style="fill: rgb(38, 50, 56); transform-origin: 571.476px 412.216px;" id="ell0ggwqg9w5q" class="animable"></path><g id="el75kio7sc1xj"><path d="M694.95529,383.0992c0,3.5981,2.9168,6.5149,6.5149,6.5149s6.515-2.9168,6.515-6.5149-2.9169-6.515-6.515-6.515-6.5149,2.9169-6.5149,6.515Z" style="fill: rgb(255, 255, 255); opacity: 0.4; transform-origin: 701.47px 383.099px;" class="animable"></path></g><g id="el0esmcsqtqr5b"><path d="M574.12589,383.0992c0,3.5981,2.9169,6.5149,6.515,6.5149s6.5149-2.9168,6.5149-6.5149-2.91679-6.515-6.5149-6.515-6.515,2.9169-6.515,6.515Z" style="fill: rgb(255, 255, 255); opacity: 0.4; transform-origin: 580.641px 383.099px;" class="animable"></path></g><g id="elxv1svcdt1ih" class="animable" style="transform-origin: 626.803px 289.404px;"><path d="M691.54829,224.0934l20.127,119.2429c1.0045,5.9516-3.5826,11.378-9.6185,11.378h-129.8337c-7.6519,0-14.1167-5.6756-15.1074-13.2631l-15.3238-117.3578h149.7564Z" style="fill: rgb(38, 50, 56); transform-origin: 626.803px 289.404px;" id="elrxiitw4lc5" class="animable"></path><g id="el4z0nw51lv62"><polygon points="707.98519 332.4204 693.07849 243.5451 545.91919 243.5451 558.33709 332.8636 707.98519 332.4204" style="fill: rgb(255, 255, 255); opacity: 0.3; transform-origin: 626.952px 288.204px;" class="animable"></polygon></g><g id="el69k4nvvhxf5"><polygon points="598.73559 243.5451 700.09849 285.3988 704.79359 313.3915 545.91919 243.5451 598.73559 243.5451" style="fill: rgb(255, 255, 255); opacity: 0.3; transform-origin: 625.356px 278.468px;" class="animable"></polygon></g><g id="ele3ilxx03g7w"><polygon points="547.36779 253.9649 706.72719 323.6979 707.98519 332.4204 548.70409 263.5763 547.36779 253.9649" style="fill: rgb(255, 255, 255); opacity: 0.3; transform-origin: 627.676px 293.193px;" class="animable"></polygon></g><g id="el3xx67ov7d75"><polygon points="547.22649 240.221 692.01539 240.221 689.29639 227.9091 545.91919 227.9091 547.22649 240.221" style="opacity: 0.5; transform-origin: 618.967px 234.065px;" class="animable"></polygon></g><g id="elu05imj6np9"><rect x="596.85289" y="232.647" width="72.704" height="3.8768" style="fill: rgb(255, 255, 255); transform-origin: 633.205px 234.585px; transform: rotate(180deg);" class="animable"></rect></g><g id="elw0nopfjht0i"><rect x="588.05859" y="230.6901" width="4.9551" height="7.7906" style="fill: rgb(255, 255, 255); transform-origin: 590.536px 234.585px; transform: rotate(180deg);" class="animable"></rect></g><g id="el75lqclao0hx"><rect x="582.244" y="230.6901" width="4.74529" height="7.7906" style="fill: rgb(255, 255, 255); transform-origin: 584.617px 234.585px; transform: rotate(180deg);" class="animable"></rect></g></g><path d="M672.2998,367.23535c-53.38574,0-132.08984-.01562-133.2793-.01562v-1c1.79004,.00098,178.98242,.03516,181.52734,0l.01367,1c-.85547,.01172-21.34277,.01562-48.26172,.01562Z" style="fill: rgb(38, 50, 56); transform-origin: 629.791px 366.728px;" id="elsiut07emhe8" class="animable"></path></g><g id="elh001a2plfmn" class="animable" style="transform-origin: 715.648px 263.184px;"><g id="elj1x9h559l1" class="animable" style="transform-origin: 715.648px 263.184px;"><path d="M722.79518,292.304h0c5.1374,0,9.3021-4.1647,9.3021-9.3021v-32.7403c0-5.1374-4.1647-9.3021-9.3021-9.3021h0c-5.1374,0-9.3021,4.1647-9.3021,9.3021v32.7403c0,5.1374,4.1647,9.3021,9.3021,9.3021Z" style="fill: rgb(251, 255, 0); transform-origin: 722.795px 266.632px;" id="ele7yc23gih1p" class="animable"></path><path d="M725.01548,244.1299s-2.4156-8.7564-8.6054-9.6623c-6.1899-.9058-17.2109,0-17.2109,0v4.6299s12.6817-.5033,14.7953,0c2.1136,.5032,4.5292,6.995,4.5292,6.995l6.4918-1.9626Z" style="fill: rgb(251, 255, 0); transform-origin: 712.107px 240.079px;" id="elzxxa6tlaugn" class="animable"></path></g><g id="elt2dddjx814k"><g style="opacity: 0.3; transform-origin: 715.648px 263.184px;" class="animable"><path d="M722.79518,292.304h0c5.1374,0,9.3021-4.1647,9.3021-9.3021v-32.7403c0-5.1374-4.1647-9.3021-9.3021-9.3021h0c-5.1374,0-9.3021,4.1647-9.3021,9.3021v32.7403c0,5.1374,4.1647,9.3021,9.3021,9.3021Z" style="fill: rgb(255, 255, 255); transform-origin: 722.795px 266.632px;" id="elxypaly3tj7" class="animable"></path><path d="M725.01548,244.1299s-2.4156-8.7564-8.6054-9.6623c-6.1899-.9058-17.2109,0-17.2109,0v4.6299s12.6817-.5033,14.7953,0c2.1136,.5032,4.5292,6.995,4.5292,6.995l6.4918-1.9626Z" style="fill: rgb(255, 255, 255); transform-origin: 712.107px 240.079px;" id="el5pz3p4olvb6" class="animable"></path></g></g></g><g id="el9lz71qqk11f" class="animable" style="transform-origin: 558.241px 266.035px;"><g id="el93w9bv55b1v" class="animable" style="transform-origin: 558.241px 266.035px;"><path d="M565.38789,295.1545h0c5.1374,0,9.30211-4.1647,9.30211-9.3021v-32.7403c0-5.1375-4.16471-9.3022-9.30211-9.3022h0c-5.1374,0-9.3021,4.1647-9.3021,9.3022v32.7403c0,5.1374,4.1647,9.3021,9.3021,9.3021Z" style="fill: rgb(251, 255, 0); transform-origin: 565.388px 269.482px;" id="el89uyu7u6579" class="animable"></path><path d="M567.60819,246.9804s-2.4156-8.7564-8.6054-9.6623c-6.1899-.9058-17.2109,0-17.2109,0v4.6299s12.6817-.5033,14.7953,0c2.1136,.5032,4.5292,6.995,4.5292,6.995l6.4918-1.9626Z" style="fill: rgb(251, 255, 0); transform-origin: 554.7px 242.929px;" id="el0vhj4ener01" class="animable"></path></g><g id="elxlwgb7n54vs"><g style="opacity: 0.3; transform-origin: 558.241px 266.035px;" class="animable"><path d="M565.38789,295.1545h0c5.1374,0,9.30211-4.1647,9.30211-9.3021v-32.7403c0-5.1375-4.16471-9.3022-9.30211-9.3022h0c-5.1374,0-9.3021,4.1647-9.3021,9.3022v32.7403c0,5.1374,4.1647,9.3021,9.3021,9.3021Z" style="fill: rgb(255, 255, 255); transform-origin: 565.388px 269.482px;" id="elert9v8olbak" class="animable"></path><path d="M567.60819,246.9804s-2.4156-8.7564-8.6054-9.6623c-6.1899-.9058-17.2109,0-17.2109,0v4.6299s12.6817-.5033,14.7953,0c2.1136,.5032,4.5292,6.995,4.5292,6.995l6.4918-1.9626Z" style="fill: rgb(255, 255, 255); transform-origin: 554.7px 242.929px;" id="elt8ihy1m85t" class="animable"></path></g></g></g></g></g><defs>     <filter id="active" height="200%">         <feMorphology in="SourceAlpha" result="DILATED" operator="dilate" radius="2"></feMorphology>                <feFlood flood-color="#32DFEC" flood-opacity="1" result="PINK"></feFlood>        <feComposite in="PINK" in2="DILATED" operator="in" result="OUTLINE"></feComposite>        <feMerge>            <feMergeNode in="OUTLINE"></feMergeNode>            <feMergeNode in="SourceGraphic"></feMergeNode>        </feMerge>    </filter>    <filter id="hover" height="200%">        <feMorphology in="SourceAlpha" result="DILATED" operator="dilate" radius="2"></feMorphology>                <feFlood flood-color="#ff0000" flood-opacity="0.5" result="PINK"></feFlood>        <feComposite in="PINK" in2="DILATED" operator="in" result="OUTLINE"></feComposite>        <feMerge>            <feMergeNode in="OUTLINE"></feMergeNode>            <feMergeNode in="SourceGraphic"></feMergeNode>        </feMerge>            <feColorMatrix type="matrix" values="0   0   0   0   0                0   1   0   0   0                0   0   0   0   0                0   0   0   1   0 "></feColorMatrix>    </filter></defs></svg>